<?xml version="1.0" encoding="UTF-8"?>
<!DOCTYPE svg PUBLIC "-//W3C//DTD SVG 1.1//EN" "http://www.w3.org/Graphics/SVG/1.1/DTD/svg11.dtd">
<!-- Creator: CorelDRAW X7 -->
<svg xmlns="http://www.w3.org/2000/svg" xml:space="preserve" width="3.53467in" height="5.14903in" version="1.1" style="shape-rendering:geometricPrecision; text-rendering:geometricPrecision; image-rendering:optimizeQuality; fill-rule:evenodd; clip-rule:evenodd"
viewBox="0 0 791 1152"
 xmlns:xlink="http://www.w3.org/1999/xlink">
 <defs>
  <style type="text/css">
   <![CDATA[
    .fil1 {fill:#373435;fill-rule:nonzero}
    .fil2 {fill:white;fill-rule:nonzero}
    .fil0 {fill:url(#id0);fill-rule:nonzero}
   ]]>
  </style>
  <radialGradient id="id0" gradientUnits="userSpaceOnUse" gradientTransform="matrix(0.648195 -0 -0 1 139 0)" cx="395.358" cy="575.927" r="324.781" fx="395.358" fy="575.927">
   <stop offset="0" style="stop-opacity:1; stop-color:#F75B5B"/>
   <stop offset="1" style="stop-opacity:1; stop-color:#E80303"/>
  </radialGradient>
 </defs>
 <g id="Layer_x0020_1">
  <metadata id="CorelCorpID_0Corel-Layer"/>
  <g id="_941503088">
   <path class="fil0" d="M28 924l0 -1c-1,-1 -2,-2 -3,-4l0 0c-1,-1 -2,-3 -2,-4l0 0c-1,-2 -2,-3 -3,-4 -14,-25 -20,-41 -20,-41l47 0 0 1 49 0c0,0 0,-1 0,-1l0 0c-5,-9 -83,-163 -69,-310 0,-4 1,-8 1,-12 1,-4 1,-8 2,-12 1,-3 1,-6 2,-9 0,-2 0,-4 1,-6 0,-3 1,-5 2,-8 1,-4 1,-7 2,-10l0 0 0 0 0 0 0 -1 1 0 0 0 0 0 0 0 0 -1 0 0 0 0 0 0c2,-6 4,-12 6,-18l-26 0c-8,0 -15,-6 -15,-14l0 0 0 -14 0 -23 23 0 0 -84 37 7 -37 -34 0 -91 0 0 0 -69 87 -161 0 0 0 0 102 188 31 -24 19 -15 32 57 95 -42 5 -3 0 0 0 0 100 45 32 -57 41 32 10 7 102 -188 0 0 0 0 86 161 0 69 0 0 0 91 -36 34 36 -7 0 84 23 0 0 23 0 14 0 0c0,8 -7,14 -15,14l-32 0c2,6 4,12 6,18l0 0 0 0 0 0 0 1 0 0 0 0 0 0 0 0 0 1 1 0 0 0 0 0c0,3 1,6 2,10 1,3 1,5 2,8 0,2 1,4 1,6 1,3 1,6 2,9 1,4 1,8 2,12 0,4 0,8 1,12 14,147 -64,301 -69,310l0 0c0,0 0,1 0,1l49 0 0 -1 47 0c0,0 -5,15 -18,37l0 0c-1,1 -1,2 -2,4l0 0c-1,1 -2,2 -3,4 -186,313 -545,316 -737,9z"/>
   <g>
    <path class="fil1" d="M221 437l17 0 3 10 11 0 -17 -47 -11 0 -17 47 10 0 4 -10zm8 -27l0 0 6 19 -12 0 6 -19zm57 20l12 0c13,0 15,-11 15,-15 0,-10 -6,-15 -15,-15l-21 0 0 47 9 0 0 -17zm0 -8l0 -14 8 0c6,0 9,2 9,6 0,2 0,8 -7,8l-10 0zm52 13l0 0 -11 -35 -10 0 16 47 9 0 16 -47 -10 0 -10 35zm36 -5l12 0c13,0 15,-11 15,-15 0,-10 -6,-15 -15,-15l-21 0 0 47 9 0 0 -17zm0 -8l0 -14 8 0c6,0 9,2 9,6 0,2 0,8 -7,8l-10 0zm75 7l11 0c-2,10 -9,11 -11,11 -7,0 -14,-4 -14,-16 0,-13 6,-18 13,-18 7,0 11,6 11,8l10 0c-1,-6 -7,-16 -21,-16 -16,0 -23,12 -23,25 0,17 10,25 22,25 8,0 12,-4 14,-7l1 6 7 0 0 -26 -20 0 0 8zm39 8l18 0 3 10 11 0 -17 -47 -12 0 -16 47 10 0 3 -10zm9 -27l0 0 6 19 -12 0 6 -19zm74 -10l-14 0 -8 37 -1 0 -8 -37 -15 0 0 47 10 0 0 -40 0 0 8 40 10 0 9 -40 0 0 0 40 9 0 0 -47zm45 0l-35 0 0 47 36 0 0 -8 -26 0 0 -13 23 0 0 -8 -23 0 0 -10 25 0 0 -8zm-442 125l9 0c6,-24 6,-27 8,-36l0 0c1,9 2,13 7,36l10 0 13 -47 -10 0c-6,26 -7,30 -8,35l0 0c-1,-6 -1,-9 -7,-35l-10 0c-5,25 -6,30 -7,35l0 0c-1,-6 -2,-9 -8,-35l-10 0 13 47zm62 -47l-10 0 0 47 10 0 0 -47zm30 8l14 0 0 -8 -39 0 0 8 15 0 0 39 10 0 0 -39zm48 18l0 21 10 0 0 -47 -10 0 0 18 -19 0 0 -18 -10 0 0 47 10 0 0 -21 19 0zm48 2l20 0 0 -9 -20 0 0 -11 23 0 0 -8 -33 0 0 47 10 0 0 -19zm28 -4c0,22 16,25 23,25 6,0 22,-3 22,-25 0,-22 -16,-25 -22,-25 -7,0 -23,3 -23,25zm10 0c0,-13 7,-17 13,-17 5,0 13,4 13,17 0,13 -8,16 -13,16 -6,0 -13,-3 -13,-16zm43 23l10 0 0 -18 10 0c8,0 8,2 8,9 0,5 0,7 1,9l11 0 0 -1c-2,-1 -2,-2 -2,-9 0,-9 -2,-11 -6,-12 5,-2 7,-6 7,-12 0,-4 -2,-13 -15,-13l-24 0 0 47zm10 -26l0 -13 12 0c6,0 7,4 7,6 0,5 -2,7 -7,7l-12 0zm73 -21l-35 0 0 47 36 0 0 -8 -26 0 0 -12 23 0 0 -9 -23 0 0 -10 25 0 0 -8zm26 36l0 0 -10 -36 -11 0 16 47 10 0 16 -47 -11 0 -10 36zm62 -36l-35 0 0 47 36 0 0 -8 -26 0 0 -12 23 0 0 -9 -23 0 0 -10 25 0 0 -8zm9 47l10 0 0 -18 10 0c7,0 8,2 8,9 0,5 0,7 1,9l11 0 0 -1c-2,-1 -2,-2 -2,-9 0,-9 -3,-11 -6,-12 4,-2 7,-6 7,-12 0,-4 -2,-13 -15,-13l-24 0 0 47zm10 -26l0 -13 12 0c6,0 7,4 7,6 0,5 -3,7 -8,7l-11 0z"/>
    <path class="fil2" d="M319 590l24 0 0 -9 -24 0 0 -13 27 0 0 -9 -39 0 0 54 12 0 0 -23zm45 -31l-11 0 0 54 11 0 0 -54zm36 26l17 -26 -13 0 -10 17 -10 -17 -13 0 16 26 -17 28 13 0 11 -18 10 18 14 0 -18 -28zm65 -26l-40 0 0 54 41 0 0 -10 -30 0 0 -14 26 0 0 -9 -26 0 0 -12 29 0 0 -9zm10 54l23 0c18,0 23,-17 23,-28 0,-11 -4,-26 -22,-26l-24 0 0 54zm11 -45l11 0c5,0 12,2 12,18 0,8 -3,18 -12,18l-11 0 0 -36zm-235 135l11 0 0 -21 12 0c8,0 9,2 9,10 0,5 0,8 1,11l12 0 0 -2c-2,-1 -2,-3 -2,-10 0,-11 -2,-12 -7,-14 5,-2 8,-7 8,-13 0,-5 -2,-15 -17,-15l-27 0 0 54zm11 -31l0 -14 14 0c7,0 8,4 8,7 0,5 -3,7 -9,7l-13 0zm83 -23l-40 0 0 54 42 0 0 -10 -30 0 0 -14 26 0 0 -9 -26 0 0 -12 28 0 0 -9zm22 54l10 0c6,-28 7,-32 8,-42l1 0c1,10 2,15 8,42l11 0 15 -54 -11 0c-7,29 -8,34 -9,39l0 0c-2,-7 -2,-10 -8,-39l-12 0c-6,28 -7,34 -8,39l0 0c-1,-6 -2,-10 -9,-39l-12 0 16 54zm67 -11l20 0 3 11 13 0 -19 -54 -13 0 -20 54 12 0 4 -11zm10 -31l0 0 7 21 -14 0 7 -21zm33 42l11 0 0 -21 12 0c8,0 8,2 8,10 0,5 1,8 2,11l12 0 0 -2c-2,-1 -2,-3 -2,-10 0,-11 -3,-12 -7,-14 5,-2 8,-7 8,-13 0,-5 -2,-15 -17,-15l-27 0 0 54zm11 -31l0 -14 14 0c7,0 8,4 8,7 0,5 -3,7 -9,7l-13 0zm43 31l24 0c18,0 22,-17 22,-29 0,-10 -4,-25 -22,-25l-24 0 0 54zm11 -45l11 0c5,0 13,1 13,17 0,9 -3,18 -13,18l-11 0 0 -35z"/>
   </g>
  </g>
 </g>
</svg>
