<?xml version="1.0" encoding="UTF-8"?>
<!DOCTYPE svg PUBLIC "-//W3C//DTD SVG 1.1//EN" "http://www.w3.org/Graphics/SVG/1.1/DTD/svg11.dtd">
<!-- Creator: CorelDRAW X7 -->
<svg xmlns="http://www.w3.org/2000/svg" xml:space="preserve" width="3.53469in" height="5.14903in" version="1.1" style="shape-rendering:geometricPrecision; text-rendering:geometricPrecision; image-rendering:optimizeQuality; fill-rule:evenodd; clip-rule:evenodd"
viewBox="0 0 1983 2888"
 xmlns:xlink="http://www.w3.org/1999/xlink">
 <defs>
  <style type="text/css">
   <![CDATA[
    .fil1 {fill:#373435;fill-rule:nonzero}
    .fil2 {fill:white;fill-rule:nonzero}
    .fil0 {fill:url(#id0);fill-rule:nonzero}
   ]]>
  </style>
  <radialGradient id="id0" gradientUnits="userSpaceOnUse" gradientTransform="matrix(0.648192 -0 -0 1 349 0)" cx="991.412" cy="1444.21" r="814.429" fx="991.412" fy="1444.21">
   <stop offset="0" style="stop-opacity:1; stop-color:#F75B5B"/>
   <stop offset="1" style="stop-opacity:1; stop-color:#E80303"/>
  </radialGradient>
 </defs>
 <g id="Layer_x0020_1">
  <metadata id="CorelCorpID_0Corel-Layer"/>
  <g id="_941545168">
   <path class="fil0" d="M70 2316l0 0c-2,-4 -5,-8 -7,-11l0 0c-2,-4 -4,-8 -6,-11l0 0c-2,-4 -4,-7 -6,-10 -36,-62 -51,-101 -51,-101l117 0 0 0 124 0c0,0 0,0 0,-1l-1 0c-11,-22 -206,-409 -172,-779 1,-10 2,-20 3,-29 1,-10 3,-20 4,-30 2,-7 3,-15 4,-23 1,-4 2,-9 3,-14 2,-7 4,-14 5,-21 2,-8 4,-17 6,-24l1 -1 0 0 0 -1 0 0 0 -1 0 0 0 -1 1 0 0 -1 0 0 0 0 0 0c4,-16 9,-31 15,-46l-65 0c-20,0 -36,-15 -36,-34l0 -1 0 -36 0 -56 57 0 0 -212 91 19 -91 -85 0 -230 0 0 0 -172 216 -404 0 0 0 0 257 472 77 -60 49 -39 81 143 238 -106 12 -6 0 0 0 0 251 112 81 -143 101 80 25 19 257 -472 0 0 0 0 216 404 0 172 -1 0 0 230 -90 85 90 -19 0 212 57 0 0 56 0 36 0 1c0,19 -16,34 -36,34l-81 0c5,15 10,30 15,46l0 0 0 0 0 0 0 1 0 0 0 1 1 0 0 1 0 0 0 1 0 0 0 1c2,7 5,16 7,24 1,7 3,14 4,21 1,5 2,10 3,14 2,8 3,16 4,23 2,10 3,20 5,30 1,9 2,19 3,29 34,370 -161,757 -172,779l-1 0c0,1 0,1 0,1l124 0 0 0 117 0c0,0 -14,35 -45,90l0 1c-2,3 -4,6 -6,9l0 1c-2,3 -4,6 -6,10 -467,785 -1367,792 -1849,22z"/>
   <g>
    <path class="fil1" d="M391 1096l44 0 7 25 27 0 -41 -119 -29 0 -42 119 26 0 8 -25zm22 -67l0 0 15 47 -30 0 15 -47zm219 12c-1,-18 -16,-42 -51,-42 -31,0 -55,21 -55,63 0,41 23,62 54,62 30,0 47,-18 52,-44l-25 0c-3,15 -12,22 -26,22 -21,0 -30,-19 -30,-40 0,-34 18,-42 30,-42 20,0 24,14 26,21l25 0zm13 20c0,56 42,63 58,63 15,0 57,-7 57,-63 0,-55 -42,-62 -57,-62 -16,0 -58,7 -58,62zm25 0c0,-33 19,-41 33,-41 13,0 32,8 32,41 0,34 -19,42 -32,42 -14,0 -33,-8 -33,-42zm223 -59l-35 0 -22 94 0 0 -21 -94 -37 0 0 119 23 0 0 -100 1 0 21 100 25 0 22 -100 0 0 0 100 23 0 0 -119zm49 76l29 0c31,0 37,-27 37,-38 0,-23 -13,-38 -36,-38l-55 0 0 119 25 0 0 -43zm0 -21l0 -35 20 0c15,0 22,5 22,17 0,5 0,18 -19,18l-23 0zm110 -55l-24 0 0 119 84 0 0 -22 -60 0 0 -97zm164 0l-87 0 0 119 90 0 0 -21 -66 0 0 -31 58 0 0 -21 -58 0 0 -25 63 0 0 -21zm74 21l35 0 0 -21 -96 0 0 21 36 0 0 98 25 0 0 -98zm137 -21l-87 0 0 119 90 0 0 -21 -66 0 0 -31 58 0 0 -21 -58 0 0 -25 63 0 0 -21zm48 0l-25 0 0 119 84 0 0 -22 -59 0 0 -97zm112 74l40 -74 -28 0 -23 52 -25 -52 -29 0 41 74 0 45 24 0 0 -45zm-1181 431l-1 0 -47 -83 -26 0 0 119 23 0 0 -85 0 0 49 85 25 0 0 -119 -23 0 0 83zm71 -14l53 0 0 -21 -53 0 0 -27 60 0 0 -21 -85 0 0 119 25 0 0 -50zm127 -48l36 0 0 -21 -97 0 0 21 36 0 0 98 25 0 0 -98zm152 54l28 0c-5,24 -23,26 -29,26 -17,0 -34,-9 -34,-41 0,-31 16,-43 34,-43 17,0 26,15 26,20l25 0c-2,-17 -16,-40 -53,-40 -40,0 -58,30 -58,63 0,41 26,62 55,62 22,0 31,-11 37,-18l2 15 17 0 0 -64 -50 0 0 20zm99 19l43 0 8 25 27 0 -42 -119 -29 0 -42 119 26 0 9 -25zm21 -67l1 0 14 47 -30 0 15 -47zm187 -27l-36 0 -21 93 -1 0 -21 -93 -36 0 0 119 23 0 0 -100 0 0 22 100 24 0 22 -100 1 0 0 100 23 0 0 -119zm111 0l-87 0 0 119 90 0 0 -21 -66 0 0 -31 58 0 0 -21 -58 0 0 -25 63 0 0 -21zm108 153c-12,-21 -22,-43 -22,-78 0,-34 10,-56 22,-78l-17 0c-15,21 -29,46 -29,78 0,33 15,58 29,78l17 0zm43 -75l11 -11 37 52 32 0 -51 -71 48 -48 -32 0 -45 48 0 -48 -25 0 0 119 25 0 0 -41zm108 -35c0,-9 1,-22 17,-22 11,0 16,9 16,16 0,14 -8,20 -29,35 -26,19 -27,33 -28,47l80 0 0 -21 -50 0c2,-5 10,-11 26,-22 11,-7 24,-18 24,-38 0,-24 -18,-37 -40,-37 -10,0 -38,3 -38,42l22 0zm164 -43l-88 0 0 119 91 0 0 -21 -66 0 0 -31 58 0 0 -21 -58 0 0 -25 63 0 0 -21zm13 -3c12,21 23,44 23,78 0,34 -10,56 -23,78l17 0c16,-20 30,-46 30,-78 0,-32 -15,-58 -30,-78l-17 0zm-1131 278l12 -12 37 53 32 0 -52 -71 49 -48 -32 0 -46 48 0 -48 -25 0 0 119 25 0 0 -41zm116 -78l-25 0 0 119 25 0 0 -119zm48 0l-25 0 0 119 84 0 0 -22 -59 0 0 -97zm101 0l-25 0 0 119 84 0 0 -22 -59 0 0 -97zm114 61l-46 0 0 22 46 0 0 -22zm42 -54l-24 0 0 23 -12 0 0 17 12 0 0 53c0,12 4,19 24,19l3 0c4,0 7,0 11,0l0 -17c-2,0 -3,0 -5,0 -9,0 -9,-2 -9,-7l0 -48 14 0 0 -17 -14 0 0 -23zm113 67c0,-31 -21,-46 -45,-46 -23,0 -45,15 -45,46 0,32 22,47 45,47 24,0 45,-15 45,-47zm-23 0c0,12 -4,27 -22,27 -17,0 -21,-15 -21,-27 0,-11 4,-26 21,-26 18,0 22,15 22,26zm80 -13l-47 0 0 22 47 0 0 -22zm104 -61l-87 0 0 119 90 0 0 -22 -66 0 0 -30 58 0 0 -21 -58 0 0 -25 63 0 0 -21zm48 94l44 0 8 25 27 0 -42 -119 -29 0 -42 119 26 0 8 -25zm22 -67l0 0 15 47 -30 0 15 -47zm72 92l25 0 0 -47 25 0c19,0 20,6 20,23 0,12 1,18 2,24l28 0 0 -4c-5,-2 -5,-6 -5,-23 0,-22 -6,-26 -16,-30 12,-4 19,-16 19,-29 0,-10 -6,-33 -38,-33l-60 0 0 119zm25 -67l0 -32 31 0c14,0 17,10 17,16 0,12 -6,16 -19,16l-29 0zm167 30l0 0 -47 -82 -26 0 0 119 23 0 0 -85 0 0 49 85 24 0 0 -119 -23 0 0 82z"/>
    <path class="fil2" d="M500 1299l0 0 -54 -94 -30 0 0 135 27 0 0 -96 0 0 55 96 29 0 0 -135 -27 0 0 94zm154 -94l-100 0 0 135 103 0 0 -24 -75 0 0 -35 66 0 0 -24 -66 0 0 -28 72 0 0 -24zm53 135l27 0c14,-70 17,-79 21,-106l0 0c5,27 7,40 21,106l27 0 38 -135 -28 0c-18,74 -20,86 -22,99l-1 0c-3,-18 -4,-25 -20,-99l-30 0c-14,71 -17,85 -19,99l0 0c-3,-16 -5,-25 -22,-99l-30 0 38 135zm335 -135l-42 0 -24 107 0 0 -25 -107 -41 0 0 135 26 0 0 -113 1 0 25 113 27 0 26 -113 0 0 0 113 27 0 0 -135zm21 67c0,64 47,72 65,72 18,0 65,-8 65,-72 0,-63 -47,-71 -65,-71 -18,0 -65,8 -65,71zm28 0c0,-38 22,-47 37,-47 15,0 37,9 37,47 0,38 -22,48 -37,48 -15,0 -37,-10 -37,-48zm125 68l59 0c44,0 56,-42 56,-71 0,-25 -9,-64 -55,-64l-60 0 0 135zm28 -112l27 0c12,0 31,3 31,43 0,23 -8,46 -31,46l-27 0 0 -89zm208 -23l-100 0 0 135 103 0 0 -24 -75 0 0 -35 66 0 0 -24 -66 0 0 -28 72 0 0 -24zm55 0l-29 0 0 135 96 0 0 -24 -67 0 0 -111z"/>
   </g>
  </g>
 </g>
</svg>
