<?xml version="1.0" encoding="UTF-8"?>
<!DOCTYPE svg PUBLIC "-//W3C//DTD SVG 1.1//EN" "http://www.w3.org/Graphics/SVG/1.1/DTD/svg11.dtd">
<!-- Creator: CorelDRAW X7 -->
<svg xmlns="http://www.w3.org/2000/svg" xml:space="preserve" width="3.53467in" height="5.14903in" version="1.1" style="shape-rendering:geometricPrecision; text-rendering:geometricPrecision; image-rendering:optimizeQuality; fill-rule:evenodd; clip-rule:evenodd"
viewBox="0 0 1131 1647"
 xmlns:xlink="http://www.w3.org/1999/xlink">
 <defs>
  <style type="text/css">
   <![CDATA[
    .fil2 {fill:#373435;fill-rule:nonzero}
    .fil1 {fill:white;fill-rule:nonzero}
    .fil0 {fill:url(#id0);fill-rule:nonzero}
   ]]>
  </style>
  <radialGradient id="id0" gradientUnits="userSpaceOnUse" gradientTransform="matrix(0.648194 -0 -0 1 199 0)" cx="565.29" cy="823.467" r="464.377" fx="565.29" fy="823.467">
   <stop offset="0" style="stop-opacity:1; stop-color:#F75B5B"/>
   <stop offset="1" style="stop-opacity:1; stop-color:#E80303"/>
  </radialGradient>
 </defs>
 <g id="Layer_x0020_1">
  <metadata id="CorelCorpID_0Corel-Layer"/>
  <g id="_939204096">
   <path class="fil0" d="M40 1320l0 0c-1,-2 -3,-4 -4,-6l0 0c-1,-2 -2,-4 -4,-6l0 0c-1,-2 -2,-4 -3,-6 -20,-35 -29,-57 -29,-57l67 0 0 0 70 0c0,0 0,0 0,-1l0 0c-6,-12 -118,-233 -98,-444 0,-6 1,-11 2,-17 0,-5 1,-11 2,-17 1,-4 1,-8 2,-13 1,-2 1,-5 2,-8 1,-4 2,-8 3,-12 1,-5 2,-9 3,-14l0 0 0 0 0 0 1 -1 0 0 0 0 0 -1 0 0 0 0 0 0 0 0 0 0c3,-9 5,-18 9,-27l-38 0c-11,0 -20,-8 -20,-19l0 0 0 -21 0 -32 33 0 0 -121 51 11 -51 -48 0 -132 0 1 0 -98 123 -231 0 0 0 0 146 269 44 -34 28 -22 46 81 136 -60 7 -3 0 0 0 0 143 63 46 -81 58 45 14 11 146 -269 0 0 0 0 123 231 0 98 0 0 0 131 -51 48 51 -11 0 121 33 0 0 32 0 21 0 0c0,11 -10,19 -21,19l-46 0c3,9 6,18 8,27l0 0 0 0 1 0 0 0 0 0 0 1 0 0 0 0 0 1 0 0 0 0 0 0c2,5 3,9 4,14 1,4 2,8 3,12 0,3 1,6 1,8 1,5 2,9 3,13 1,6 1,12 2,17 1,6 1,11 2,17 19,211 -92,432 -98,444l-1 0c0,1 0,1 0,1l71 0 0 0 67 0c0,0 -8,20 -26,51l0 0c-1,2 -2,4 -3,6l0 0c-1,2 -3,4 -4,6 -266,448 -779,452 -1054,12z"/>
   <g>
    <path class="fil1" d="M540 629l0 0 -31 -54 -17 0 0 77 15 0 0 -55 0 0 32 55 16 0 0 -77 -15 0 0 54zm27 -16c0,37 27,41 37,41 10,0 37,-4 37,-41 0,-36 -27,-40 -37,-40 -10,0 -37,4 -37,40zm16 0c0,-21 12,-27 21,-27 9,0 21,6 21,27 0,22 -12,27 -21,27 -9,0 -21,-5 -21,-27z"/>
    <path class="fil2" d="M312 767l29 0c14,0 18,-2 21,-6 4,-3 6,-8 6,-14 0,-6 -2,-13 -10,-16 3,-2 8,-4 8,-14 0,-7 -4,-17 -21,-17l-33 0 0 67zm14 -29l18 0c5,0 10,2 10,8 0,7 -4,10 -11,10l-17 0 0 -18zm0 -27l16 0c7,0 10,2 10,8 0,5 -4,7 -10,7l-16 0 0 -15zm54 56l14 0 0 -26 15 0c10,0 11,3 11,13 0,7 0,10 1,13l16 0 0 -1c-3,-2 -3,-4 -3,-14 0,-13 -3,-15 -9,-17 7,-2 11,-9 11,-16 0,-6 -3,-19 -21,-19l-35 0 0 67zm14 -38l0 -18 18 0c8,0 10,6 10,9 0,7 -4,9 -11,9l-17 0zm104 -29l-49 0 0 67 51 0 0 -12 -38 0 0 -17 33 0 0 -12 -33 0 0 -14 36 0 0 -12zm63 0l-50 0 0 67 52 0 0 -12 -38 0 0 -17 33 0 0 -12 -33 0 0 -14 36 0 0 -12zm13 67l30 0c22,0 28,-21 28,-35 0,-13 -5,-32 -28,-32l-30 0 0 67zm14 -56l14 0c6,0 15,2 15,22 0,11 -4,23 -15,23l-14 0 0 -45zm67 -11l-14 0 0 67 14 0 0 -67zm55 47l0 0 -27 -47 -15 0 0 67 13 0 0 -48 0 0 28 48 14 0 0 -67 -13 0 0 47zm59 -5l15 0c-3,14 -13,15 -16,15 -10,0 -20,-5 -20,-23 0,-18 10,-24 20,-24 10,0 14,8 14,11l15 0c-1,-10 -9,-23 -30,-23 -23,0 -33,17 -33,36 0,23 15,35 31,35 12,0 17,-6 21,-10l1 8 10 0 0 -36 -28 0 0 11zm54 12l-14 0 0 13 8 0c-1,8 -4,10 -8,11l0 5 0 0c8,-2 14,-6 14,-18l0 -11zm-489 101l17 0c18,0 21,-15 21,-21 0,-14 -8,-22 -21,-22l-31 0 0 68 14 0 0 -25zm0 -12l0 -19 12 0c8,0 12,2 12,9 0,3 0,10 -11,10l-13 0zm63 -31l-14 0 0 68 48 0 0 -13 -34 0 0 -55zm58 54l25 0 4 14 16 0 -24 -68 -16 0 -25 68 15 0 5 -14zm13 -39l0 0 8 27 -17 0 9 -27zm82 32l0 0 -27 -47 -15 0 0 68 13 0 0 -49 1 0 27 49 14 0 0 -68 -13 0 0 47zm56 -35l20 0 0 -12 -55 0 0 12 21 0 0 56 14 0 0 -56zm42 -12l-15 0 0 68 15 0 0 -68zm54 47l0 0 -27 -47 -15 0 0 68 13 0 0 -49 1 0 27 49 14 0 0 -68 -13 0 0 47zm59 -5l15 0c-2,14 -13,15 -16,15 -10,0 -20,-4 -20,-23 0,-17 10,-24 20,-24 10,0 15,8 15,11l14 0c-1,-9 -9,-23 -30,-23 -23,0 -33,17 -33,36 0,24 15,35 31,35 12,0 18,-6 21,-10l2 9 9 0 0 -37 -28 0 0 11zm54 12l-14 0 0 14 8 0c0,8 -4,9 -8,10l0 5 0 0c8,-1 14,-6 14,-17l0 -12zm-456 97l30 0 0 -12 -30 0 0 -15 34 0 0 -12 -48 0 0 68 14 0 0 -29zm50 15l25 0 5 14 15 0 -24 -68 -16 0 -24 68 15 0 4 -14zm13 -39l0 0 8 27 -17 0 9 -27zm41 53l14 0 0 -27 15 0c10,0 11,4 11,13 0,7 0,11 1,14l16 0 0 -2c-3,-1 -3,-4 -3,-13 0,-13 -3,-15 -9,-18 7,-2 11,-8 11,-16 0,-6 -4,-19 -22,-19l-34 0 0 68zm14 -38l0 -18 18 0c8,0 10,5 10,9 0,6 -4,9 -11,9l-17 0zm119 -30l-20 0 -12 54 -1 0 -12 -54 -20 0 0 68 13 0 0 -57 0 0 12 57 14 0 13 -57 0 0 0 57 13 0 0 -68zm27 0l-14 0 0 68 14 0 0 -68zm54 47l0 0 -27 -47 -15 0 0 68 14 0 0 -48 0 0 27 48 15 0 0 -68 -14 0 0 47zm59 -4l16 0c-3,13 -14,15 -17,15 -9,0 -19,-5 -19,-24 0,-17 9,-24 19,-24 10,0 15,9 15,11l14 0c-1,-9 -9,-23 -30,-23 -23,0 -33,18 -33,36 0,24 15,36 31,36 13,0 18,-6 21,-11l2 9 9 0 0 -37 -28 0 0 12zm55 11l-15 0 0 14 8 0c0,8 -4,9 -8,11l0 5 0 0c9,-2 15,-6 15,-18l0 -12zm-434 96l0 30 14 0 0 -68 -14 0 0 26 -27 0 0 -26 -14 0 0 68 14 0 0 -30 27 0zm42 16l25 0 4 14 16 0 -24 -68 -16 0 -25 68 15 0 5 -14zm12 -38l1 0 8 26 -17 0 8 -26zm62 -4l21 0 0 -12 -56 0 0 12 21 0 0 56 14 0 0 -56zm86 11c0,-10 -9,-24 -29,-24 -17,0 -31,12 -31,35 0,24 13,36 31,36 17,0 26,-10 29,-25l-14 0c-2,8 -7,13 -15,13 -12,0 -17,-11 -17,-23 0,-20 10,-24 17,-24 12,0 14,7 15,12l14 0zm51 15l0 30 14 0 0 -68 -14 0 0 26 -26 0 0 -26 -14 0 0 68 14 0 0 -30 26 0zm41 -38l-14 0 0 68 14 0 0 -68zm55 48l0 0 -27 -48 -15 0 0 68 13 0 0 -48 0 0 28 48 14 0 0 -68 -13 0 0 48zm58 -5l16 0c-3,14 -13,15 -16,15 -10,0 -20,-5 -20,-23 0,-18 9,-25 19,-25 10,0 15,9 15,11l14 0c0,-9 -9,-22 -29,-22 -23,-1 -34,17 -34,35 0,24 15,36 32,36 12,0 17,-6 21,-10l1 8 10 0 0 -36 -29 0 0 11zm55 11l-14 0 0 14 8 0c-1,8 -5,10 -8,11l0 5 0 0c8,-2 14,-6 14,-18l0 -12zm-551 106c0,8 5,22 29,22 6,0 27,-2 27,-22 0,-12 -8,-16 -18,-18l-16 -4c-3,-1 -7,-2 -7,-7 0,-6 6,-8 12,-8 12,0 13,7 13,10l14 0c0,-9 -6,-22 -26,-22 -22,0 -26,13 -26,21 0,15 10,17 21,20l7 1c7,2 13,3 13,9 0,7 -8,8 -15,8 -12,0 -14,-7 -14,-10l-14 0zm96 -35l20 0 0 -12 -55 0 0 12 21 0 0 55 14 0 0 -55zm34 41l25 0 5 14 15 0 -24 -67 -16 0 -24 67 15 0 4 -14zm13 -38l0 0 8 27 -17 0 9 -27zm56 29l7 -6 21 29 18 0 -29 -40 27 -27 -18 0 -26 27 0 -27 -14 0 0 67 14 0 0 -23zm66 -44l-14 0 0 67 14 0 0 -67zm55 47l0 0 -27 -47 -15 0 0 67 13 0 0 -48 0 0 28 48 14 0 0 -67 -13 0 0 47zm58 -5l16 0c-3,14 -13,15 -16,15 -10,0 -20,-5 -20,-23 0,-17 9,-24 19,-24 10,0 15,8 15,11l14 0c0,-10 -9,-23 -29,-23 -23,0 -33,17 -33,36 0,23 14,35 31,35 12,0 17,-6 21,-10l1 8 10 0 0 -36 -29 0 0 11zm55 12l-14 0 0 13 8 0c-1,8 -5,10 -8,11l0 5 0 0c8,-2 14,-6 14,-18l0 -11zm64 -1c-1,3 -5,5 -8,5 -11,0 -12,-8 -12,-12l34 0 0 -3c0,-22 -13,-27 -23,-27 -22,0 -24,19 -24,25 0,21 10,28 25,28 8,0 18,-4 22,-16l-14 0zm-20 -16c1,-6 4,-10 11,-10 4,0 9,2 10,10l-21 0zm58 -33l-13 0 0 13 -7 0 0 10 7 0 0 30c0,7 2,11 13,11l2 0c2,0 4,0 6,0l0 -10c-1,0 -2,0 -3,0 -5,0 -5,-1 -5,-4l0 -27 8 0 0 -10 -8 0 0 -13zm46 45c0,2 -2,9 -9,9 -10,0 -10,-11 -10,-16 0,-7 2,-15 11,-15 6,0 8,5 8,8l14 0c-1,-16 -14,-19 -22,-19 -17,0 -24,11 -24,28 0,10 4,25 23,25 18,0 22,-15 23,-20l-14 0z"/>
   </g>
  </g>
 </g>
</svg>
