<svg width="2" height="2" viewBox="0 0 2 2" fill="none" xmlns="http://www.w3.org/2000/svg">
<path d="M1.63288 1.17183C1.63288 1.17183 1.53588 1.44083 1.22287 1.54283V1.23283L1.24287 1.13583L1.19487 1.04782L1.20487 0.979823L1.21187 0.927822H1.42587L1.46188 0.81882L1.18587 0.852821L1.16587 1.04782L1.16187 1.08683H1.10187L1.09787 1.04782L1.07787 0.852821L0.800863 0.81882L0.836863 0.927822H1.05087L1.05787 0.979823L1.06787 1.04782L1.01987 1.13583L1.04087 1.23283V1.54283C0.726861 1.44083 0.630859 1.17183 0.630859 1.17183H0.752862H0.751862C0.746862 1.15983 0.64786 0.951823 0.66486 0.753819C0.66486 0.747819 0.66586 0.742819 0.66686 0.737819C0.66686 0.731819 0.66786 0.726819 0.66886 0.721819C0.66886 0.717818 0.66986 0.713818 0.67086 0.709818C0.67086 0.706818 0.67186 0.704818 0.67186 0.701818C0.67286 0.697818 0.67386 0.693818 0.67486 0.690818C0.67586 0.685818 0.67686 0.681818 0.67786 0.677818C0.67986 0.671818 0.68086 0.666817 0.68286 0.660817C0.68386 0.657817 0.68486 0.653817 0.68586 0.650817C0.68686 0.647817 0.68786 0.644817 0.689861 0.641817C0.689861 0.638817 0.690861 0.636817 0.691861 0.633817C0.693861 0.630817 0.694861 0.626817 0.696861 0.623817C0.697861 0.619817 0.699861 0.615816 0.701861 0.611816H1.56088C1.56288 0.615816 1.56488 0.619817 1.56688 0.623817C1.56788 0.626817 1.56988 0.630817 1.57088 0.633817C1.57188 0.636817 1.57288 0.638817 1.57388 0.641817C1.57488 0.644817 1.57588 0.647817 1.57688 0.650817C1.57788 0.653817 1.57888 0.657817 1.57988 0.660817C1.58188 0.666817 1.58388 0.671818 1.58488 0.677818C1.58588 0.681818 1.58688 0.685818 1.58788 0.690818C1.58888 0.693818 1.58988 0.697818 1.59088 0.701818C1.59088 0.704818 1.59188 0.706818 1.59188 0.709818C1.59288 0.713818 1.59388 0.717818 1.59388 0.721819C1.59488 0.726819 1.59588 0.731819 1.59688 0.737819C1.59688 0.742819 1.59788 0.747819 1.59788 0.753819C1.61588 0.951823 1.51688 1.15983 1.51088 1.17183H1.63288Z" fill="url(#paint0_linear_310_8)"/>
<path d="M1.04087 1.49588V1.54288C0.727861 1.44088 0.630859 1.17188 0.630859 1.17188H0.689861C0.723861 1.24688 0.822863 1.41788 1.04087 1.49588Z" fill="#3F234B"/>
<path d="M1.05792 0.97998L0.870915 1.02598L0.836914 0.927979H1.05092L1.05792 0.97998Z" fill="#3F234B"/>
<path d="M1.04044 1.01001L0.898438 1.06701L0.956439 1.13201L1.04044 1.01001Z" fill="#3F234B"/>
<path d="M1.22266 1.49588V1.54288C1.53566 1.44088 1.63266 1.17188 1.63266 1.17188H1.57266C1.53866 1.24688 1.44066 1.41788 1.22266 1.49588Z" fill="#3F234B"/>
<path d="M1.51042 1.17185C1.51342 1.16485 1.58642 0.992847 1.52442 0.715842C1.51542 0.674841 1.50042 0.64084 1.48242 0.61184H1.56042C1.56042 0.61184 1.56042 0.61184 1.55942 0.61084C1.56042 0.61184 1.56042 0.61184 1.56042 0.61184C1.56242 0.61584 1.56442 0.61984 1.56642 0.62384C1.56742 0.62684 1.56942 0.63084 1.57042 0.63384C1.57142 0.63684 1.57242 0.63884 1.57342 0.64184C1.57442 0.64484 1.57542 0.647841 1.57642 0.650841C1.57742 0.653841 1.57842 0.657841 1.57942 0.660841C1.58142 0.666841 1.58342 0.671841 1.58442 0.677841C1.58542 0.681841 1.58642 0.685841 1.58742 0.690841C1.58842 0.693841 1.58942 0.697842 1.59042 0.701842C1.59042 0.704842 1.59142 0.706842 1.59142 0.709842C1.59242 0.713842 1.59342 0.717842 1.59342 0.721842C1.59442 0.726842 1.59542 0.731842 1.59642 0.737842C1.59642 0.742842 1.59742 0.747842 1.59742 0.753843C1.61542 0.951846 1.51642 1.15985 1.51042 1.17185Z" fill="url(#paint1_linear_310_8)"/>
<path d="M1.58473 0.674925H0.678711C0.683711 0.657925 0.688711 0.639925 0.696711 0.623924C0.700711 0.614924 0.704711 0.605924 0.709712 0.596924H1.55273C1.55773 0.605924 1.56173 0.614924 1.56673 0.623924C1.57373 0.639925 1.57973 0.657925 1.58473 0.674925Z" fill="#3F234B"/>
<path d="M1.20508 0.97998L1.39208 1.02598L1.42608 0.927979H1.21208L1.20508 0.97998Z" fill="#3F234B"/>
<path d="M1.22266 1.01001L1.36466 1.06701L1.30566 1.13201L1.22266 1.01001Z" fill="#3F234B"/>
<path d="M1.16566 1.04785L1.16166 1.08685H1.10166L1.09766 1.04785H1.16566Z" fill="#3F234B"/>
<path d="M1.60808 0.217004L1.49808 0L1.36808 0.254005L1.30407 0.201004L1.26307 0.277005L1.13607 0.217004L1.00907 0.277005L0.968068 0.201004L0.904067 0.254005L0.774065 0L0.664062 0.217004V0.433008L0.710063 0.478009L0.664062 0.469009V0.552011H1.60808V0.469009L1.56208 0.478009L1.60808 0.433008V0.217004ZM0.795065 0.478009C0.748064 0.478009 0.710063 0.441008 0.710063 0.394008C0.710063 0.347007 0.748064 0.309006 0.795065 0.309006C0.841066 0.309006 0.879067 0.347007 0.879067 0.394008C0.879067 0.441008 0.841066 0.478009 0.795065 0.478009ZM1.13607 0.51101C1.08907 0.51101 1.05107 0.473009 1.05107 0.427008C1.05107 0.380007 1.08907 0.342007 1.13607 0.342007C1.18307 0.342007 1.22007 0.380007 1.22007 0.427008C1.22007 0.473009 1.18307 0.51101 1.13607 0.51101ZM1.47708 0.478009C1.43108 0.478009 1.39308 0.441008 1.39308 0.394008C1.39308 0.347007 1.43108 0.309006 1.47708 0.309006C1.52408 0.309006 1.56208 0.347007 1.56208 0.394008C1.56208 0.441008 1.52408 0.478009 1.47708 0.478009Z" fill="#3F234B"/>
<path d="M0.84719 0.394042C0.84719 0.365041 0.824189 0.342041 0.795189 0.342041C0.766188 0.342041 0.742188 0.365041 0.742188 0.394042C0.742188 0.423043 0.766188 0.446043 0.795189 0.446043C0.824189 0.446043 0.84719 0.423043 0.84719 0.394042Z" fill="#3F234B"/>
<path d="M0.82672 0.394085C0.82672 0.376084 0.81272 0.361084 0.794719 0.361084C0.776719 0.361084 0.761719 0.376084 0.761719 0.394085C0.761719 0.412085 0.776719 0.427085 0.794719 0.427085C0.81272 0.427085 0.82672 0.412085 0.82672 0.394085Z" fill="#3F234B"/>
<path d="M1.49808 0L1.36808 0.254005L1.30407 0.201004L1.26307 0.277005L1.13607 0.217004L1.00907 0.277005L0.968068 0.201004L0.904067 0.254005L0.774065 0L0.664062 0.217004V0.310006L0.779065 0.0960018L0.922067 0.370007L1.13607 0.278005L1.35008 0.370007L1.49308 0.0960018L1.60808 0.310006V0.217004L1.49808 0Z" fill="#3F234B"/>
<path d="M1.4248 0.394042C1.4248 0.365041 1.44781 0.342041 1.47681 0.342041C1.50581 0.342041 1.52981 0.365041 1.52981 0.394042C1.52981 0.423043 1.50581 0.446043 1.47681 0.446043C1.44781 0.446043 1.4248 0.423043 1.4248 0.394042Z" fill="#3F234B"/>
<path d="M1.44434 0.394085C1.44434 0.376084 1.45834 0.361084 1.47634 0.361084C1.49434 0.361084 1.50934 0.376084 1.50934 0.394085C1.50934 0.412085 1.49434 0.427085 1.47634 0.427085C1.45834 0.427085 1.44434 0.412085 1.44434 0.394085Z" fill="#3F234B"/>
<path d="M1.08398 0.427024C1.08398 0.398024 1.10698 0.374023 1.13599 0.374023C1.16499 0.374023 1.18799 0.398024 1.18799 0.427024C1.18799 0.456025 1.16499 0.479025 1.13599 0.479025C1.10698 0.479025 1.08398 0.456025 1.08398 0.427024Z" fill="#3F234B"/>
<path d="M1.10254 0.427044C1.10254 0.409043 1.11754 0.394043 1.13554 0.394043C1.15354 0.394043 1.16854 0.409043 1.16854 0.427044C1.16854 0.445044 1.15354 0.459044 1.13554 0.459044C1.11754 0.459044 1.10254 0.445044 1.10254 0.427044Z" fill="#3F234B"/>
<path d="M1.61778 0.650033H0.652766C0.642766 0.650033 0.634766 0.642032 0.634766 0.632032V0.582031H1.63578V0.632032C1.63578 0.642032 1.62778 0.650033 1.61778 0.650033Z" fill="#3F234B"/>
<path d="M1.61778 0.65008H0.652766C0.642766 0.65008 0.634766 0.64208 0.634766 0.63208H1.63578C1.63578 0.64208 1.62778 0.65008 1.61778 0.65008Z" fill="#3F234B"/>
<path d="M1.63578 0.612032H0.634766V0.582031H1.63578V0.612032Z" fill="#3F234B"/>
<path d="M0.702148 0.612084C0.702148 0.612084 0.703148 0.612084 0.703148 0.611084C0.703148 0.612084 0.702148 0.612084 0.702148 0.612084Z" fill="#3F234B"/>
<defs>
<linearGradient id="paint0_linear_310_8" x1="1.13147" y1="1.35635" x2="1.13147" y2="0.798234" gradientUnits="userSpaceOnUse">
<stop stop-color="#B53AE4"/>
<stop offset="1" stop-color="#3A18A3"/>
</linearGradient>
<linearGradient id="paint1_linear_310_8" x1="1.54102" y1="0.644565" x2="1.54102" y2="1.13843" gradientUnits="userSpaceOnUse">
<stop stop-color="#FFE495" stop-opacity="0"/>
<stop offset="0.929412" stop-color="#EFEB52"/>
<stop offset="1" stop-color="#EFEB52"/>
</linearGradient>
</defs>
</svg>
